<svg xmlns="http://www.w3.org/2000/svg" width="38" height="39" viewBox="0 0 38 39">
  <defs>
    <style>
      .cls-1 {
        fill: #2d2d2d;
        stroke: #222;
        stroke-linejoin: round;
        stroke-width: 1px;
        fill-rule: evenodd;
      }
    </style>
  </defs>
  <path class="cls-1" d="M1264.89,1234.04c-1.34-1.37-2.68-2.71-3.98-4.01a3.205,3.205,0,0,0-4.79-.01l-0.18.18c-0.71.71-1.44,1.44-2.15,2.17-0.14-.07-0.29-0.14-0.43-0.22-0.32-.16-0.63-0.31-0.9-0.48a24.52,24.52,0,0,1-5.97-5.49,14.11,14.11,0,0,1-2.01-3.17c0.63-.62,1.24-1.24,1.84-1.85,0.16-.16.31-0.32,0.47-0.47a3.3,3.3,0,0,0-.01-4.92c-0.45-.46-0.91-0.92-1.35-1.36l-0.6-.6c-0.21-.22-0.41-0.42-0.63-0.63-0.44-.46-0.91-0.94-1.38-1.4a3.442,3.442,0,0,0-2.4-1.06,3.4,3.4,0,0,0-2.39,1.06c-0.34.34-.68,0.68-1,1.02-0.48.48-.97,0.98-1.47,1.46a4.959,4.959,0,0,0-1.54,3.33,12.9,12.9,0,0,0,.94,5.38,31.183,31.183,0,0,0,5.49,9.24,34.375,34.375,0,0,0,11.25,8.87,16.44,16.44,0,0,0,6.41,1.87c0.14,0.01.29,0.01,0.43,0.01a5.25,5.25,0,0,0,4.1-1.77c0.45-.5.93-0.97,1.44-1.47,0.25-.26.52-0.52,0.78-0.78A3.274,3.274,0,0,0,1264.89,1234.04Zm-1.28,3.63c-0.25.26-.51,0.51-0.76,0.76-0.51.5-1.04,1.02-1.53,1.57a3.572,3.572,0,0,1-3.1,1.17,15.008,15.008,0,0,1-5.73-1.69,32.495,32.495,0,0,1-10.66-8.41,29.343,29.343,0,0,1-5.19-8.71,10.794,10.794,0,0,1-.84-4.61,3.214,3.214,0,0,1,.99-2.16c0.51-.51,1.01-1.02,1.5-1.52,0.33-.32.66-0.66,0.99-0.99a1.644,1.644,0,0,1,1.14-.56,1.689,1.689,0,0,1,1.15.56l1.37,1.37c0.21,0.22.41,0.43,0.62,0.64l0.6,0.6,1.35,1.35a1.5,1.5,0,0,1,0,2.39c-0.15.16-.31,0.31-0.46,0.47-0.64.65-1.31,1.33-1.97,1.98a1.394,1.394,0,0,0-.34,1.65,15.915,15.915,0,0,0,2.35,3.8,26.288,26.288,0,0,0,6.41,5.87c0.35,0.22.72,0.4,1.07,0.58,0.21,0.1.4,0.2,0.59,0.3a1.4,1.4,0,0,0,.71.2h0a1.437,1.437,0,0,0,1.04-.49c0.75-.78,1.53-1.55,2.27-2.3l0.18-.18a1.677,1.677,0,0,1,1.14-.55,1.721,1.721,0,0,1,1.14.55c1.29,1.3,2.63,2.64,3.97,4A1.5,1.5,0,0,1,1263.61,1237.67Z" transform="translate(-1231 -1207)"/>
</svg>
