<svg xmlns="http://www.w3.org/2000/svg" width="38.34" height="29.25" viewBox="0 0 38.34 29.25">
  <defs>
    <style>
      .cls-1 {
        fill: #222;
        fill-rule: evenodd;
      }
    </style>
  </defs>
  <path class="cls-1" d="M1275.67,1284.72h-28.99a4.7,4.7,0,0,0-4.69,4.7v19.84a4.7,4.7,0,0,0,4.69,4.7h28.98a4.7,4.7,0,0,0,4.69-4.7v-19.83A4.692,4.692,0,0,0,1275.67,1284.72Zm2.55,24.54a2.554,2.554,0,0,1-2.55,2.55h-28.99a2.548,2.548,0,0,1-2.55-2.55v-19.83a2.548,2.548,0,0,1,2.55-2.55h28.98a2.554,2.554,0,0,1,2.55,2.55v19.83h0.01Zm-12.04-10.17,9.38-8.42a1.076,1.076,0,0,0,.08-1.52,1.064,1.064,0,0,0-1.51-.08l-12.94,11.63-2.53-2.26c0-.01-0.01-0.01-0.01-0.02a0.845,0.845,0,0,0-.18-0.15l-10.27-9.21a1.068,1.068,0,0,0-1.52.09,1.086,1.086,0,0,0,.09,1.52l9.5,8.49-9.46,8.87a1.084,1.084,0,0,0-.05,1.52,1.116,1.116,0,0,0,.79.34,1.091,1.091,0,0,0,.73-0.29l9.6-8.99,2.6,2.33a1.094,1.094,0,0,0,.72.27,1.08,1.08,0,0,0,.71-0.28l2.68-2.4,9.54,9.08a1.034,1.034,0,0,0,.74.29,1.061,1.061,0,0,0,.77-0.33,1.075,1.075,0,0,0-.04-1.52Z" transform="translate(-1242 -1284.72)"/>
</svg>
