<?xml version="1.0" encoding="utf-8"?>
<!-- Generator: Adobe Illustrator 20.0.0, SVG Export Plug-In . SVG Version: 6.00 Build 0)  -->
<svg version="1.1" id="Layer_1" xmlns="http://www.w3.org/2000/svg" xmlns:xlink="http://www.w3.org/1999/xlink" x="0px" y="0px"
	 viewBox="0 0 54 46" style="enable-background:new 0 0 54 46;" xml:space="preserve">
<style type="text/css">
	.st0{display:none;}
	.st1{display:inline;fill:#34669A;}
	.st2{display:inline;fill:#999999;}
	.st3{display:inline;fill:#7DBB47;}
	.st4{display:inline;fill:#027CB7;}
	.st5{display:inline;}
	.st6{fill:#EB5755;}
	.st7{fill:#999999;}
	.st8{fill:#010002;}
</style>
<g id="Capa_1" class="st0">
	<path class="st1" d="M27,6c-9.4,0-17,7.6-17,17s7.6,17,17,17s17-7.6,17-17C44,13.7,36.4,6,27,6z M30.8,20.2l-0.2,2.5H28v8.8h-3.3
		v-8.8h-1.8v-2.5h1.8v-1.7c0-0.8,0-1.9,0.6-2.6c0.6-0.8,1.4-1.3,2.7-1.3c2.2,0,3.2,0.3,3.2,0.3l-0.4,2.6c0,0-0.7-0.2-1.4-0.2
		c-0.7,0-1.3,0.2-1.3,0.9v2C28.1,20.2,30.8,20.2,30.8,20.2z"/>
</g>
<g id="Layer_2" class="st0">
	<path class="st2" d="M27,6c-9.4,0-17,7.6-17,17s7.6,17,17,17s17-7.6,17-17C44,13.7,36.4,6,27,6z M30.8,20.2l-0.2,2.5H28v8.8h-3.3
		v-8.8h-1.8v-2.5h1.8v-1.7c0-0.8,0-1.9,0.6-2.6c0.6-0.8,1.4-1.3,2.7-1.3c2.2,0,3.2,0.3,3.2,0.3l-0.4,2.6c0,0-0.7-0.2-1.4-0.2
		c-0.7,0-1.3,0.2-1.3,0.9v2C28.1,20.2,30.8,20.2,30.8,20.2z"/>
</g>
<g id="Layer_3" class="st0">
	<path class="st3" d="M27,6c-9.4,0-17,7.6-17,17s7.6,17,17,17s17-7.6,17-17S36.4,6,27,6z M21,15.6l6-6v9.3l-6,3.8V15.6z M33,23.3
		v7.1l-6,6v-9.3l-6,4.4v-8.2l6,3.8L33,23.3l-6-3.8l6-4.4V23.3z"/>
</g>
<g id="Layer_4" class="st0">
	<path class="st2" d="M27,6c-9.4,0-17,7.6-17,17s7.6,17,17,17s17-7.6,17-17S36.4,6,27,6z M21,15.6l6-6v9.3l-6,3.8V15.6z M33,23.3
		v7.1l-6,6v-9.3l-6,4.4v-8.2l6,3.8L33,23.3l-6-3.8l6-4.4V23.3z"/>
</g>
<g id="Layer_9" class="st0">
	<path class="st2" d="M27,6c-9.4,0-17,7.6-17,17s7.6,17,17,17s17-7.6,17-17S36.4,6,27,6z M35.5,21.2v7c0,1.8-1.5,3.3-3.3,3.3H21.8
		c-1.8,0-3.3-1.5-3.3-3.3v-7v-3.5c0-1.8,1.5-3.3,3.3-3.3h10.4c1.8,0,3.3,1.5,3.3,3.3C35.5,17.7,35.5,21.2,35.5,21.2z M33.1,16.4h0.4
		v0.4v2.5h-2.9v-2.9H33.1z M24.5,21.2c0.5-0.8,1.4-1.2,2.4-1.2s1.9,0.5,2.4,1.2c0.4,0.5,0.6,1.1,0.6,1.7c0,1.7-1.3,3-3,3s-3-1.3-3-3
		C24,22.3,24.2,21.7,24.5,21.2z M33.8,28.2c0,0.9-0.7,1.6-1.6,1.6H21.8c-0.9,0-1.6-0.7-1.6-1.6v-7h2.5c-0.2,0.5-0.3,1.1-0.3,1.7
		c0,2.6,2.1,4.7,4.7,4.7s4.7-2.1,4.7-4.7c0-0.6-0.1-1.2-0.3-1.7H34v7H33.8z"/>
</g>
<g id="Layer_6" class="st0">
	<path class="st2" d="M27,6c-9.4,0-17,7.6-17,17s7.6,17,17,17s17-7.6,17-17S36.4,6,27,6z M35.5,21.2v7c0,1.8-1.5,3.3-3.3,3.3H21.8
		c-1.8,0-3.3-1.5-3.3-3.3v-7v-3.5c0-1.8,1.5-3.3,3.3-3.3h10.4c1.8,0,3.3,1.5,3.3,3.3C35.5,17.7,35.5,21.2,35.5,21.2z M33.1,16.4h0.4
		v0.4v2.5h-2.9v-2.9H33.1z M24.5,21.2c0.5-0.8,1.4-1.2,2.4-1.2s1.9,0.5,2.4,1.2c0.4,0.5,0.6,1.1,0.6,1.7c0,1.7-1.3,3-3,3s-3-1.3-3-3
		C24,22.3,24.2,21.7,24.5,21.2z M33.8,28.2c0,0.9-0.7,1.6-1.6,1.6H21.8c-0.9,0-1.6-0.7-1.6-1.6v-7h2.5c-0.2,0.5-0.3,1.1-0.3,1.7
		c0,2.6,2.1,4.7,4.7,4.7s4.7-2.1,4.7-4.7c0-0.6-0.1-1.2-0.3-1.7H34v7H33.8z"/>
	<path class="st4" d="M27,6c-9.4,0-17,7.6-17,17s7.6,17,17,17s17-7.6,17-17S36.4,6,27,6z M22.1,30.5c0,0.3,0,0.3-0.3,0.3
		c-1,0-2,0-2.9,0c-0.2,0-0.3-0.1-0.3-0.3c0-1.8,0-3.5,0-5.3c0-1.7,0-3.5,0-5.2c0-0.3,0-0.3,0.3-0.3c1,0,1.9,0,2.9,0
		c0.3,0,0.3,0,0.3,0.3C22.1,23.5,22.1,27,22.1,30.5z M20.6,18.3c-0.5,0.1-0.9,0-1.4-0.2c-0.7-0.3-1.1-1-1.1-1.8
		c0.1-0.9,0.5-1.5,1.3-1.7c0.5-0.2,1-0.2,1.5,0c0.8,0.2,1.4,0.9,1.4,1.8C22.4,17.4,21.6,18.2,20.6,18.3z M35.5,30.7
		c-1.1,0-2.2,0-3.3,0c-0.3,0-0.3,0-0.3-0.3c0-1.9,0-3.7,0-5.6c0-0.5-0.1-0.9-0.3-1.4c-0.3-0.5-0.7-0.8-1.3-0.9
		c-1-0.1-1.7,0.3-2.1,1.2c-0.1,0.2-0.1,0.4-0.1,0.6c0,2,0,4,0,6c0,0.3,0,0.3-0.3,0.3c-1.1,0-2.2,0-3.3,0c-0.3,0-0.3,0-0.3-0.3
		c0-3.5,0-7,0-10.5c0-0.2,0.1-0.3,0.3-0.2c1.1,0,2.3,0,3.4,0c0.2,0,0.3,0,0.3,0.3c0,0.4,0,0.8,0,1.2c0.3-0.3,0.5-0.6,0.8-0.8
		c0.6-0.5,1.4-0.7,2.2-0.8c0.8-0.1,1.6,0,2.4,0.4c1.2,0.6,1.9,1.5,2.2,2.8c0.1,0.5,0.2,1,0.2,1.6c0,2,0,4,0,6.1
		C35.8,30.7,35.8,30.7,35.5,30.7z"/>
</g>
<g id="Layer_7" class="st0">
	<path class="st2" d="M27,6c-9.4,0-17,7.6-17,17s7.6,17,17,17s17-7.6,17-17S36.4,6,27,6z M22.1,30.5c0,0.3,0,0.3-0.3,0.3
		c-1,0-2,0-2.9,0c-0.2,0-0.3-0.1-0.3-0.3c0-1.8,0-3.5,0-5.3c0-1.7,0-3.5,0-5.2c0-0.3,0-0.3,0.3-0.3c1,0,1.9,0,2.9,0
		c0.3,0,0.3,0,0.3,0.3C22.1,23.5,22.1,27,22.1,30.5z M20.6,18.3c-0.5,0.1-0.9,0-1.4-0.2c-0.7-0.3-1.1-1-1.1-1.8
		c0.1-0.9,0.5-1.5,1.3-1.7c0.5-0.2,1-0.2,1.5,0c0.8,0.2,1.4,0.9,1.4,1.8C22.4,17.4,21.6,18.2,20.6,18.3z M35.5,30.7
		c-1.1,0-2.2,0-3.3,0c-0.3,0-0.3,0-0.3-0.3c0-1.9,0-3.7,0-5.6c0-0.5-0.1-0.9-0.3-1.4c-0.3-0.5-0.7-0.8-1.3-0.9
		c-1-0.1-1.7,0.3-2.1,1.2c-0.1,0.2-0.1,0.4-0.1,0.6c0,2,0,4,0,6c0,0.3,0,0.3-0.3,0.3c-1.1,0-2.2,0-3.3,0c-0.3,0-0.3,0-0.3-0.3
		c0-3.5,0-7,0-10.5c0-0.2,0.1-0.3,0.3-0.2c1.1,0,2.3,0,3.4,0c0.2,0,0.3,0,0.3,0.3c0,0.4,0,0.8,0,1.2c0.3-0.3,0.5-0.6,0.8-0.8
		c0.6-0.5,1.4-0.7,2.2-0.8c0.8-0.1,1.6,0,2.4,0.4c1.2,0.6,1.9,1.5,2.2,2.8c0.1,0.5,0.2,1,0.2,1.6c0,2,0,4,0,6.1
		C35.8,30.7,35.8,30.7,35.5,30.7z"/>
</g>
<g id="Layer_8" class="st0">
	<g class="st5">
		<path class="st6" d="M27.1,6C17.6,6,10,13.6,10,23.1c0,7.3,4.5,13.5,11,15.7c-0.3-1.4-0.3-3.4,0-4.8c0.3-1.4,2-8.4,2-8.4
			s-0.6-1.1-0.6-2.5c0-2.2,1.4-4.2,3.1-4.2c1.4,0,2.2,1.1,2.2,2.5s-0.8,3.7-1.4,5.6c-0.3,1.7,0.8,3.1,2.5,3.1c3.1,0,5.3-3.1,5.3-7.9
			c0-4.2-2.8-7-7-7c-4.8,0-7.6,3.7-7.6,7.3c0,1.4,0.6,3.1,1.4,3.9c0,0.3,0.3,0.3,0,0.6c0,0.6-0.3,1.7-0.6,2c0,0.3-0.3,0.3-0.6,0.3
			c-2.2-1.1-3.7-4.2-3.7-6.7c0-5.3,3.9-10.4,11.2-10.4c5.9,0,10.4,4.2,10.4,9.8c0,5.9-3.7,10.7-8.7,10.7c-1.7,0-3.4-0.8-3.9-2
			c0,0-0.8,3.4-1.1,3.9c-0.3,1.4-1.4,3.4-2.2,4.5c1.7,0.6,3.4,0.8,5.1,0.8C36.4,40,44,32.4,44,22.9C44,13.6,36.4,6,27.1,6z"/>
	</g>
	<g class="st5">
		<path class="st7" d="M27,6c-9.2,0-17,7.8-17,17c0,7.2,4.5,13.4,10.7,15.8c0-1.5-0.3-3.3,0-4.8c0.3-1.2,2.1-8.4,2.1-8.4
			s-0.3-1.2-0.3-2.7c0-2.4,1.5-4.2,3-4.2s2.1,1.2,2.1,2.4c0,1.5-0.9,3.6-1.5,5.7c-0.3,1.8,0.9,3,2.4,3c3,0,5.4-3.3,5.4-7.8
			c0-4.2-3-6.9-7.2-6.9c-4.8,0-7.8,3.6-7.8,7.5c0,1.5,0.6,3,1.2,3.9c0,0.3,0.3,0.3,0,0.6c0,0.6-0.3,1.8-0.6,1.8
			c0,0.3-0.3,0.3-0.6,0.3c-1.5-0.9-2.7-4.2-2.7-6.6c0-5.4,3.9-10.4,11.3-10.4c6,0,10.4,4.2,10.4,9.8c0,6-3.6,10.4-8.9,10.4
			c-1.8,0-3.3-0.9-3.9-2.1c0,0-0.9,3.3-1.2,4.2c-0.3,1.5-1.5,3.3-2.1,4.5c1.5,0.6,3.3,0.9,5.1,0.9c9.5,0,17-7.8,17-17S36.5,6,27,6z"
			/>
	</g>
</g>
<g>
	<path class="st8" d="M27,35.4c-0.2,0-0.4-0.1-0.5-0.2c-0.4-0.4-9.2-9.8-9.2-14.9c0-5.3,4.3-9.7,9.7-9.7c5.3,0,9.7,4.3,9.7,9.7
		c0,5.2-8.8,14.5-9.2,14.9C27.4,35.4,27.2,35.4,27,35.4L27,35.4z M27,12c-4.6,0-8.3,3.7-8.3,8.3c0,3.6,5.5,10.4,8.3,13.4
		c2.7-3,8.3-9.8,8.3-13.4C35.2,15.7,31.5,12,27,12L27,12z"/>
	<path class="st8" d="M27,23.3c-2.3,0-4.1-1.8-4.1-4.1s1.8-4.1,4.1-4.1s4.1,1.8,4.1,4.1S29.2,23.3,27,23.3L27,23.3z M27,16.5
		c-1.5,0-2.7,1.2-2.7,2.7s1.2,2.7,2.7,2.7s2.7-1.2,2.7-2.7S28.5,16.5,27,16.5L27,16.5z"/>
</g>
</svg>
