<svg xmlns="http://www.w3.org/2000/svg" width="91" height="91" viewBox="0 0 91 91">
  <defs>
    <style>
      .cls-1 {
        fill: #222;
        fill-rule: evenodd;
      }
    </style>
  </defs>
  <path id="Brand_Mark" data-name="Brand Mark" class="cls-1" d="M105.5,872.013A45.512,45.512,0,1,1,151,826.5,45.553,45.553,0,0,1,105.5,872.013m0-89.143A43.631,43.631,0,1,0,149.115,826.5,43.671,43.671,0,0,0,105.5,782.87m4.725,40.856a7.921,7.921,0,0,1,5.736,2.523,12.763,12.763,0,0,1-9.06,3.283c-0.144,0-.278-0.014-0.419-0.017a3.5,3.5,0,0,1-.7-2.2c0-2.191,1.764-3.591,4.442-3.591m-12.1-8.588a24.611,24.611,0,0,1,.914-6.283c0.854-2.806,2.623-4.27,5.183-4.27,3.961,0,5.73,3.051,6.034,10.553H98.125Zm15.386,18.325c-1.215-.467-2.247-0.9-3.132-1.3a18.663,18.663,0,0,0,6.8-4.5,14.75,14.75,0,0,1,1.687,3.793l1.887-.122-0.122-9.067h-1.155a1.533,1.533,0,0,1-1.278.851,3.387,3.387,0,0,1-.975-0.182,23.9,23.9,0,0,0-7.236-1.036c-5.054,0-8.41,1.546-9.96,4.536a0.147,0.147,0,0,0-.01-0.013c-1.464-2.014-1.889-4.331-1.95-9.149h20.545c0-4.514-.549-7.015-2.071-9.271-2.257-3.538-6.646-5.429-12.438-5.429-10.061,0-15.731,5.49-15.731,15.126,0,7.977,3.972,13.318,10.8,14.922,0.617,3.614,3.368,6.179,8.624,8.144,4.379,1.644,4.379,1.644,5.472,2.314a3.561,3.561,0,0,1,1.887,3.224c0,2.5-2.067,4.139-5.11,4.139-4.32,0-7.6-3.286-9.673-9.555l-1.883.061,0.122,11.076h1.154a2.048,2.048,0,0,1,1.581-1.094,5.8,5.8,0,0,1,1.278.182,27.333,27.333,0,0,0,8.211,1.279c7.726,0,11.8-3.287,11.8-9.556a7.655,7.655,0,0,0-2.433-6.024c-1.277-1.158-2.555-1.766-6.693-3.348" transform="translate(-60 -781)"/>
</svg>
