<svg xmlns="http://www.w3.org/2000/svg" width="151" height="70" viewBox="0 0 151 70">
  <defs>
    <style>
      .cls-1 {
        fill: #222;
        fill-rule: evenodd;
      }
    </style>
  </defs>
  <path id="Logo" class="cls-1" d="M1021.33,102.053a3.419,3.419,0,0,1,2.04.478,1.814,1.814,0,0,1,.64,1.562,1.986,1.986,0,0,1-.63,1.6,2.966,2.966,0,0,1-1.96.534h-1.73v-4.176h1.64Zm0.07-1.113h-2.98v10.923h1.27V107.32h2.27l2.63,4.543h1.49l-2.95-4.91a2.9,2.9,0,0,0,2.19-2.928,2.791,2.791,0,0,0-.96-2.316,4.682,4.682,0,0,0-2.96-.769m-6.53,0h-6.06v10.923h6.06v-1.135h-4.8v-4.021h4.51v-1.121h-4.51v-3.518h4.8V100.94Zm-13.84,0h-1.268v10.923h6.058v-1.151h-4.79V100.94Zm-4.048,0h-8.151v1.128h3.444v9.8h1.263v-9.8h3.444V100.94Zm-9.57,0h-8.151v1.128H982.7v9.8h1.265v-9.8h3.443V100.94Zm-10.342,0h-6.06v10.923h6.06v-1.135h-4.8v-4.021h4.508v-1.121h-4.508v-3.518h4.8V100.94Zm-14.813,9.8a7.784,7.784,0,0,1-1.457-.449v1.226a7.078,7.078,0,0,0,2.975.5,4.5,4.5,0,0,0,2.826-.807,2.677,2.677,0,0,0,1.042-2.248,2.6,2.6,0,0,0-.644-1.823,6,6,0,0,0-2.354-1.314,9.068,9.068,0,0,1-1.514-.669,1.968,1.968,0,0,1-.7-0.665,1.839,1.839,0,0,1-.208-0.931,1.426,1.426,0,0,1,.564-1.2,2.519,2.519,0,0,1,1.57-.434,6.7,6.7,0,0,1,2.617.567l0.395-1.105a7.324,7.324,0,0,0-2.982-.6,3.913,3.913,0,0,0-2.5.747,2.431,2.431,0,0,0-.945,2.009,2.862,2.862,0,0,0,.651,1.951,5.168,5.168,0,0,0,2.168,1.292,10.566,10.566,0,0,1,1.617.7,2.1,2.1,0,0,1,.759.669,1.721,1.721,0,0,1,.228.931,1.585,1.585,0,0,1-.641,1.34,3.14,3.14,0,0,1-1.9.481,7.676,7.676,0,0,1-1.562-.163M927.729,67.309a24.7,24.7,0,0,1,.91-6.282c0.851-2.806,2.61-4.269,5.16-4.269,3.946,0,5.708,3.049,6.011,10.551H927.729Zm-0.062,2.134h20.462c0-4.513-.547-7.014-2.066-9.27-2.245-3.538-6.616-5.429-12.385-5.429-10.017,0-15.664,5.489-15.664,15.125s5.767,15.43,15.361,15.43c5.949,0,9.532-1.586,14.023-6.16L946.186,77.8a12.882,12.882,0,0,1-9.715,3.9c-3.1,0-5.4-1.037-6.861-3.11-1.457-2.013-1.881-4.33-1.943-9.148m42.842,5.244a6.729,6.729,0,0,1-.971,4.147,4.944,4.944,0,0,1-3.947,2.074c-2.732,0-4.676-2.317-4.676-5.551,0-4.146,2.186-5.672,9.594-6.708v6.038Zm5.646,10.491c2.549,0,4.676-.854,8.378-3.415l-0.668-1.22a4.838,4.838,0,0,1-2.428.792c-1.7,0-2.308-1.4-2.308-5.307V66.271c0-4.147-.242-5.611-1.334-7.319-1.823-2.928-5.223-4.208-11.293-4.208-8.319,0-12.751,2.318-12.751,6.709,0,2.622,1.7,4.27,4.432,4.27,2.611,0,4.553-1.709,4.553-4.027a3.182,3.182,0,0,0-.606-1.89c-0.912-1.038-.912-1.038-0.912-1.343,0-.914,1.823-1.706,3.825-1.706,2.368,0,4.008.914,4.736,2.622,0.549,1.281.609,1.83,0.669,7.257l-4.675.793c-6.194,1.037-7.226,1.281-9.107,2.073a7.669,7.669,0,0,0-4.858,7.564c0,5.062,3.279,8.232,8.5,8.232,3.825,0,6.618-1.341,10.382-5,1.093,3.476,2.61,4.88,5.464,4.88m39.245-25.25c0-3.111-2.49-5.305-5.95-5.305-3.76,0-6.31,1.767-8.68,6.038V54.744l-13.479.609v1.891l1.459,0.123c3.156,0.732,3.46,1.281,3.519,6.159V76.64c-0.059,4.879-.3,5.3-3.519,6.037L987.6,82.8v1.891h18.514V82.8l-1.58-.184c-3.15-.609-3.46-1.1-3.46-5.976V69.747c0-4.39.49-6.953,1.89-9.27,1.15-2.014,2.73-3.233,4.18-3.233a1.135,1.135,0,0,1,1.22.61,1.459,1.459,0,0,1-.3.732,3.687,3.687,0,0,0-.92,2.379,3.727,3.727,0,0,0,3.89,3.659,4.438,4.438,0,0,0,4.37-4.7M1033.81,82.8l-1.21-.123c-3.22-.732-3.46-1.158-3.46-6.037V42l-14.09,1.159v1.891l1.1,0.122c3.64,0.427,4.19,1.219,4.19,6.038V76.64c-0.06,4.879-.25,5.3-3.46,6.037l-1.22.123v1.891h18.15V82.8ZM1069,57.244V55.353h-11.78v1.891c2.67,0.123,3.64.732,3.64,2.258a8.024,8.024,0,0,1-.55,2.437l-5.95,16.468-5.34-14.82c-0.91-2.623-1.09-3.233-1.09-4.026,0-1.586.97-2.135,3.94-2.318V55.353h-18.15v1.891c2.91,0.366,3.1.549,5.1,5.123l8.99,22.323h4c-0.85,1.951-1.03,2.439-1.76,4.207a30.4,30.4,0,0,1-1.7,3.722c-1.52,2.622-3.09,3.841-5.1,3.841-1.09,0-1.88-.487-1.88-1.158a1.983,1.983,0,0,1,.61-1.281,3.249,3.249,0,0,0,.79-2.135,3.341,3.341,0,0,0-3.58-3.233,3.994,3.994,0,0,0-4.13,4.27c0,3.354,2.79,5.612,6.98,5.612a8.157,8.157,0,0,0,7.4-3.844c1.04-1.463,1.16-1.645,4.86-10.185l8.62-20.614c2.19-5.306,3.16-6.343,6.08-6.648" transform="translate(-918 -42)"/>
</svg>
